# xmcd
#
# Track frame offsets:
#	182
#	19135
#	42712
#	55915
#	69782
#	88120
#	102595
#	117315
#	138542
#	154127
#
# Disc length: 2309 seconds
#
# Revision: 0
# Processed by: cddbd v1.5.2PL0 Copyright (c) Steve Scherf et al.
# Submitted via: EasyCDDAExtractor 12.0.1.1
#
DISCID=8c09030a
DTITLE=Shirley Bassey - Shirley Bassey Super Star
DYEAR=1987
DGENRE=Blues
TTITLE0=All By Myself
TTITLE1=This Masquerade
TTITLE2=If And When
TTITLE3=He's Out Of My Life
TTITLE4=New York State Of Mind
TTITLE5=Can You Read My Mind
TTITLE6=Only When I Laugh
TTITLE7=Solitaire
TTITLE8=New York Medley
TTITLE9=We Don't Cry Out Loud
EXTD=
EXTT0=
EXTT1=
EXTT2=
EXTT3=
EXTT4=
EXTT5=
EXTT6=
EXTT7=
EXTT8=
EXTT9=
PLAYORDER=
